<svg version="1.2" xmlns="http://www.w3.org/2000/svg" viewBox="0 0 512 512" width="512" height="512">
	<title>Novo Projeto</title>
	<style>
		.s0 { fill: #000000 } 
	</style>
	<path id="Oh My Guide!" class="s0" aria-label="Oh
My
Guide!"  d="m91.5 26.9q21.7 0 37.8 15.7 16 15.8 16 39.9 0 22.5-15.3 38.9-15.3 16.4-37.2 16.4-22.8 0-38.5-16.2-15.6-16.2-15.6-38.5 0-12.2 4.4-22.8 4.4-10.7 11.8-17.9 7.3-7.3 16.9-11.4 9.5-4.1 19.7-4.1zm0.4 84.8q10.6 0 19-7.9 8.4-7.9 8.4-21.5 0-13.2-8.6-21.3-8.3-8.1-18.6-8.1-10.6 0-19 8.3-8.4 8.1-8.4 21.3 0 12.9 8.4 21.2 8.5 8 18.8 8zm105.9-52.9q14.7 0 24.4 11.2 9.8 11.2 9.8 27.3v25.9q0 3.4-0.3 5.2-0.1 1.6-1.3 3.8-1 2-3.8 2.9-2.8 0.9-7.5 0.9-4.6 0-7.4-0.9-2.6-0.9-3.8-2.9-1.2-2.2-1.5-4-0.1-1.8-0.1-5.3v-25.7q0-6-3.4-9.4-3.4-3.4-8.7-3.4-5.1 0-9.1 3.2-3.9 3.1-4.5 7.1v28.5q0 3.4-0.3 5.2-0.2 1.6-1.3 3.8-1.1 2-3.9 2.9-2.8 0.9-7.5 0.9-4.5 0-7.3-0.9-2.8-0.9-4-3.1-1-2.2-1.3-3.8-0.2-1.6-0.2-5.1v-88q0-3.3 0.2-4.9 0.3-1.8 1.3-3.9 1.2-2.2 4-3.1 2.8-0.8 7.5-0.8 4.5 0 7.3 0.8 2.8 0.9 3.9 3.1 1.1 2.2 1.3 4 0.3 1.6 0.3 5v32.5q7.3-9 17.2-9zm-53.7 146.6q4.6 0 7.4 0.9 2.8 0.9 3.9 3.1 1.2 2.2 1.4 3.9 0.3 1.8 0.3 5.2v81.6q0 3.3-0.3 5.1-0.3 1.6-1.5 3.8-1 2.1-3.8 3-2.8 0.9-7.5 0.9-3.9 0-6.4-0.8-2.5-0.7-3.8-1.7-1.3-1.1-2-3-0.6-2-0.8-3.4 0-1.4 0-4.2v-49.3q-3.6 4.6-10.7 14.6-7.1 9.8-10.4 14.1-0.5 0.7-1.2 1.8-0.7 0.8-3.7 2.6-2.8 1.6-6.2 1.6-3.2 0-6-1.5-2.6-1.6-3.8-3l-1.2-1.7q-2.9-3.6-11.6-15.5-8.7-12.1-9.4-13v49.6q0 3.3-0.3 5.1-0.2 1.6-1.3 3.8-1.2 2.1-4 3-2.8 0.9-7.5 0.9-4.6 0-7.3-0.9-2.7-0.9-3.9-3-1.1-2.2-1.4-3.9-0.2-1.8-0.2-5.3v-81.6q0-3.4 0.2-5 0.3-1.8 1.4-3.8 1.2-2.2 4-3.1 2.8-0.9 7.5-0.9 4 0 6.8 1 2.9 0.9 3.8 1.9l0.9 0.9 33.3 43.8q25-33.1 33.4-43.6 2.5-4 11.9-4zm96.8 31q8.6 3.8 8.6 9.3 0 2.3-2.2 7v0.2q-0.1 0.1-0.1 0.3l-38.5 86.1q-1.2 2.8-2.1 4.3-0.7 1.4-2.5 2.8-1.8 1.3-4.1 1.3-3 0-8.1-2.2-8.7-3.8-8.7-9.1 0-2.4 2.4-7.7 5.4-12.5 11.7-26l-29.2-49.2q-3-4.9-3-7.2 0-4.7 8-9.5 5-2.9 8.5-2.9 2.1 0 3.8 1.2 1.8 1.2 2.5 2.5 0.9 1.2 2.5 3.8 13 22.2 19.6 32.9 0.7-2.3 14.1-31.6 1-2.3 1.5-3.4 0.5-1 1.6-2.3 1.2-1.5 2.5-2.1 1.3-0.6 3.2-0.6 3.2 0 8 2.1zm-143.8 187.6h25.8q4 0.2 6.4 1.2 2.5 0.9 3.3 2.9 1.1 1.9 1.2 3.6 0.3 1.4 0.3 4.7v32.3q0 4.7-4.1 9-4.1 4.2-9.1 6.9-11.8 5.9-27.9 5.9-22 0-38.1-16.5-16.2-16.6-16.2-40.4 0-23 16.5-38.5 16.4-15.8 38.8-15.8 15.3 0 28.7 8.6 2.7 1.9 4.1 2.9 1.4 1 2.6 2.9 1.3 1.8 1.3 3.9 0 3.3-3.3 8-5.8 7.8-10.5 7.8-2.8 0-7.8-3.3-7.3-4.8-15.9-4.8-11.1 0-19.8 8-8.7 7.8-8.7 20.6 0 12.6 8.8 21.6 8.9 8.8 20 8.8 8.1 0 14.6-2.6v-16.1h-11.6q-2.8 0-4.1-0.1-1.2-0.3-2.8-1.2-1.5-1-2.1-3.2-0.6-2.4-0.6-6.3 0-3.9 0.6-6.2 0.8-2.4 2.5-3.3 1.8-0.8 3-1 1.3-0.3 4.1-0.3zm83.2 64.7q-14.9 0-24.7-11.2-9.7-11.3-9.7-27.5v-25.7q0-3.5 0.1-5.1 0.3-1.6 1.3-3.9 1.2-2.2 4-3 2.8-0.9 7.5-0.9 3.8 0 6.3 0.7 2.5 0.7 3.9 1.8 1.3 1 1.9 3.1 0.7 1.9 0.7 3.3 0.2 1.4 0.2 4.2v25.7q0 6 3.3 9.4 3.6 3.4 9.4 3.4 5.8 0 9.3-3.5 3.7-3.6 3.7-9.3v-26q0-3.4 0.1-5 0.3-1.8 1.4-3.9 1.1-2.2 3.9-3 2.8-0.9 7.5-0.9 4.6 0 7.4 0.9 2.8 0.8 3.8 3 1.2 2.3 1.3 4 0.3 1.6 0.3 5v52.1q0 3.2-0.3 5-0.1 1.6-1.3 3.6-1.2 2.1-4 3-2.8 0.9-7.3 0.9-4.4 0-7.2-0.9-2.8-0.9-3.9-2.7-1-1.7-1.3-2.9-0.1-1.2-0.1-3.1-0.3 0.4-0.9 1-0.4 0.6-2.2 2.2-1.6 1.6-3.5 3-2 1.1-4.9 2.2-2.9 1-6 1zm54.7-12.6v-51.6q0-3.4 0.1-5 0.3-1.8 1.3-3.9 1.2-2.2 4-3 2.8-0.9 7.5-0.9 3.7 0 6.2 0.7 2.6 0.7 3.8 1.8 1.3 1 1.9 3.1 0.8 1.9 0.8 3.3 0.1 1.4 0.1 4.2v51.4q0 3.4-0.3 5.2-0.1 1.6-1.3 3.8-1 2-3.8 2.9-2.8 0.9-7.5 0.9-4.6 0-7.4-0.9-2.8-0.9-4-3.1-1-2.2-1.3-3.8-0.1-1.6-0.1-5.1zm12.8-75q-4.6 0-7.4-0.9-2.8-0.9-4-3.1-1-2.2-1.3-3.8-0.1-1.8-0.1-5.2 0-3.3 0.1-4.9 0.3-1.8 1.3-3.9 1.2-2.2 4-3.1 2.8-0.8 7.5-0.8 4.6 0 7.4 0.8 2.8 0.9 3.8 3.1 1.2 2.2 1.3 4 0.3 1.6 0.3 5 0 3.4-0.3 5.1-0.1 1.7-1.3 3.9-1 2-3.8 2.9-2.8 0.9-7.5 0.9zm88-25.7q4.6 0 7.4 0.8 2.8 0.9 3.8 3.1 1.2 2.2 1.3 4 0.3 1.6 0.3 5v87.8q0 3.3-0.3 5.1-0.1 1.6-1.3 3.8-1.2 2.1-4 3-2.8 0.9-7.5 0.9-11.1 0-12.3-7.3-6.2 7.1-17.2 7.1-13.3 0-24.1-11.5-10.9-11.6-10.9-27.3 0-15 10.9-26.6 11-11.6 24.1-11.6 10.9 0 16.9 7.3v-30.9q0-3.3 0.1-4.9 0.3-1.8 1.4-3.9 1.1-2.2 3.9-3.1 2.8-0.8 7.5-0.8zm-35.3 83.8q3.9 3.9 9.3 3.9 5.4 0 9-3.9 3.6-4 3.6-8.9 0-4.7-3.5-8.8-3.4-4.1-9.2-4.1-5.9 0-9.5 4.1-3.5 4-3.5 8.8 0 4.9 3.8 8.9zm134.6-18.9q0 9.7-4.6 14.2-4.4 4.2-9.9 4.2h-34.8q0 4.1 4.9 6.9 4.8 2.8 10.4 2.8 4 0 7.5-0.6 3.5-0.6 5.1-1.1l1.7-0.6q3.5-1.7 5.8-1.7 4.7 0 8.1 6.7 1.9 3.9 1.9 6.7 0 13.1-31.3 13.1-10.9 0-19.4-3.7-8.4-3.8-13.1-9.8-4.7-6.2-7-13-2.2-6.7-2.2-13.8 0-18.5 11.9-29.5 12-11.2 30-11.2 7.2 0 13.2 2.1 6 1.9 10 5.1 4 3.1 6.6 7.2 2.8 4.1 4 8.2 1.2 4 1.2 7.8zm-49.6 5h18.5q5.6 0 5.6-4.7 0-3.3-2.6-5.4-2.5-2.1-7.4-2.1-4.7 0-9.4 4-4.7 3.8-4.7 8.2zm84.1 19.4q2.5 2.5 2.5 8.6v2.3q0 3.6-0.3 5.3-0.1 1.6-1.5 4-1.1 2.3-4.1 3.4-2.9 0.8-7.9 0.8-8 0-11-3-2.7-2.7-2.7-10.9 0-3.4 0.3-5.2 0.3-1.7 1.5-3.9 1.2-2.4 4.1-3.4 3.1-1 7.9-1 8 0 11.2 3zm-3.8-15.2q-2.8 0.7-7.5 0.7-4.7 0-7.5-0.7-2.8-0.8-4-2.7-1-1.9-1.3-3.4-0.2-1.4-0.2-4.5v-46.6q0-3.1 0.2-4.6 0.3-1.6 1.5-3.5 1.1-1.9 3.9-2.7 2.8-0.8 7.5-0.8 4.7 0 7.5 0.8 2.8 0.8 3.9 2.8 1.1 1.9 1.3 3.6 0.3 1.4 0.3 4.5v46.6q0 3.1-0.3 4.6-0.2 1.4-1.3 3.4-1.2 1.7-4 2.5z"/>
</svg>